<?xml version="1.0" encoding="utf-8"?>
<!-- Generator: Adobe Illustrator 15.0.0, SVG Export Plug-In . SVG Version: 6.00 Build 0)  -->
<!DOCTYPE svg PUBLIC "-//W3C//DTD SVG 1.1//EN" "http://www.w3.org/Graphics/SVG/1.1/DTD/svg11.dtd">
<svg version="1.1" id="Layer_1" xmlns="http://www.w3.org/2000/svg" xmlns:xlink="http://www.w3.org/1999/xlink" x="0px" y="0px"
	 width="1024px" height="768px" viewBox="0 0 1024 768" enable-background="new 0 0 1024 768" xml:space="preserve">
<rect x="1" y="-2" fill="#0D2234" width="1023" height="769"/>
<g opacity="0.1">
	<rect x="-0.5" y="-2.5" fill="none" stroke="#FFFFFF" stroke-miterlimit="10" width="1023" height="769"/>
	<line fill="none" stroke="#FFFFFF" stroke-miterlimit="10" x1="4" y1="728.5" x2="1021" y2="728.5"/>
	<line fill="none" stroke="#FFFFFF" stroke-miterlimit="10" x1="4" y1="691.5" x2="1021" y2="691.5"/>
	<line fill="none" stroke="#FFFFFF" stroke-miterlimit="10" x1="4" y1="650.5" x2="1021" y2="650.5"/>
	<line fill="none" stroke="#FFFFFF" stroke-miterlimit="10" x1="4" y1="624.5" x2="1021" y2="624.5"/>
	<line fill="none" stroke="#FFFFFF" stroke-miterlimit="10" x1="4" y1="586.5" x2="1021" y2="586.5"/>
	<line fill="none" stroke="#FFFFFF" stroke-miterlimit="10" x1="4" y1="545.5" x2="1021" y2="545.5"/>
	<line fill="none" stroke="#FFFFFF" stroke-miterlimit="10" x1="4" y1="508.5" x2="1021" y2="508.5"/>
	<line fill="none" stroke="#FFFFFF" stroke-miterlimit="10" x1="4" y1="471.5" x2="1021" y2="471.5"/>
	<line fill="none" stroke="#FFFFFF" stroke-miterlimit="10" x1="4" y1="433.5" x2="1021" y2="433.5"/>
	<line fill="none" stroke="#FFFFFF" stroke-miterlimit="10" x1="4" y1="396.5" x2="1021" y2="396.5"/>
	<line fill="none" stroke="#FFFFFF" stroke-miterlimit="10" x1="4" y1="366.5" x2="1021" y2="366.5"/>
	<line fill="none" stroke="#FFFFFF" stroke-miterlimit="10" x1="4" y1="329.5" x2="1021" y2="329.5"/>
	<line fill="none" stroke="#FFFFFF" stroke-miterlimit="10" x1="4" y1="292.5" x2="1021" y2="292.5"/>
	<line fill="none" stroke="#FFFFFF" stroke-miterlimit="10" x1="4" y1="251.5" x2="1021" y2="251.5"/>
	<line fill="none" stroke="#FFFFFF" stroke-miterlimit="10" x1="4" y1="213.5" x2="1021" y2="213.5"/>
	<line fill="none" stroke="#FFFFFF" stroke-miterlimit="10" x1="4" y1="176.5" x2="1021" y2="176.5"/>
	<line fill="none" stroke="#FFFFFF" stroke-miterlimit="10" x1="4" y1="139.5" x2="1021" y2="139.5"/>
	<line fill="none" stroke="#FFFFFF" stroke-miterlimit="10" x1="4" y1="109.5" x2="1021" y2="109.5"/>
	<line fill="none" stroke="#FFFFFF" stroke-miterlimit="10" x1="4" y1="72.5" x2="1021" y2="72.5"/>
	<line fill="none" stroke="#FFFFFF" stroke-miterlimit="10" x1="4" y1="34.5" x2="1021" y2="34.5"/>
	<line fill="none" stroke="#FFFFFF" stroke-miterlimit="10" x1="977.5" y1="-1" x2="977.5" y2="760"/>
	<line fill="none" stroke="#FFFFFF" stroke-miterlimit="10" x1="925.5" y1="-1" x2="925.5" y2="760"/>
	<line fill="none" stroke="#FFFFFF" stroke-miterlimit="10" x1="877.5" y1="-1" x2="877.5" y2="760"/>
	<line fill="none" stroke="#FFFFFF" stroke-miterlimit="10" x1="825.5" y1="-1" x2="825.5" y2="760"/>
	<line fill="none" stroke="#FFFFFF" stroke-miterlimit="10" x1="780.5" y1="-1" x2="780.5" y2="760"/>
	<line fill="none" stroke="#FFFFFF" stroke-miterlimit="10" x1="734.5" y1="-1" x2="734.5" y2="760"/>
	<line fill="none" stroke="#FFFFFF" stroke-miterlimit="10" x1="682.5" y1="-1" x2="682.5" y2="760"/>
	<line fill="none" stroke="#FFFFFF" stroke-miterlimit="10" x1="637.5" y1="-1" x2="637.5" y2="760"/>
	<line fill="none" stroke="#FFFFFF" stroke-miterlimit="10" x1="585.5" y1="-1" x2="585.5" y2="760"/>
	<line fill="none" stroke="#FFFFFF" stroke-miterlimit="10" x1="537.5" y1="-1" x2="537.5" y2="760"/>
	<line fill="none" stroke="#FFFFFF" stroke-miterlimit="10" x1="491.5" y1="-1" x2="491.5" y2="760"/>
	<line fill="none" stroke="#FFFFFF" stroke-miterlimit="10" x1="439.5" y1="-1" x2="439.5" y2="760"/>
	<line fill="none" stroke="#FFFFFF" stroke-miterlimit="10" x1="394.5" y1="-1" x2="394.5" y2="760"/>
	<line fill="none" stroke="#FFFFFF" stroke-miterlimit="10" x1="342.5" y1="-1" x2="342.5" y2="760"/>
	<line fill="none" stroke="#FFFFFF" stroke-miterlimit="10" x1="294.5" y1="-1" x2="294.5" y2="760"/>
	<line fill="none" stroke="#FFFFFF" stroke-miterlimit="10" x1="248.5" y1="-1" x2="248.5" y2="760"/>
	<line fill="none" stroke="#FFFFFF" stroke-miterlimit="10" x1="197.5" y1="-1" x2="197.5" y2="760"/>
	<line fill="none" stroke="#FFFFFF" stroke-miterlimit="10" x1="151.5" y1="-1" x2="151.5" y2="760"/>
	<line fill="none" stroke="#FFFFFF" stroke-miterlimit="10" x1="99.5" y1="-1" x2="99.5" y2="760"/>
	<line fill="none" stroke="#FFFFFF" stroke-miterlimit="10" x1="54.5" y1="-1" x2="54.5" y2="760"/>
</g>
<g>
	<path fill="#FFFFFF" d="M512.001,242.744c-78.016,0-141.257,63.241-141.257,141.257s63.241,141.255,141.257,141.255
		c78.014,0,141.255-63.239,141.255-141.255S590.015,242.744,512.001,242.744z M512.001,502.058
		c-65.098,0-118.057-52.961-118.057-118.057s52.959-118.057,118.057-118.057c65.095,0,118.055,52.961,118.055,118.057
		S577.097,502.058,512.001,502.058z"/>
	<path fill="#FFFFFF" d="M599.274,356.411c-0.016-0.11-0.043-0.216-0.062-0.326c-0.037-0.211-0.076-0.423-0.131-0.629
		c-0.032-0.125-0.078-0.244-0.116-0.363c-0.061-0.184-0.12-0.368-0.193-0.547c-0.052-0.124-0.111-0.248-0.168-0.367
		c-0.079-0.17-0.161-0.336-0.256-0.496c-0.068-0.12-0.142-0.235-0.213-0.35c-0.102-0.156-0.204-0.308-0.317-0.455
		c-0.082-0.109-0.17-0.221-0.257-0.326c-0.119-0.137-0.244-0.275-0.375-0.404c-0.099-0.101-0.195-0.202-0.298-0.294
		c-0.138-0.124-0.28-0.244-0.425-0.358c-0.112-0.087-0.224-0.175-0.341-0.257c-0.044-0.028-0.082-0.065-0.124-0.093l-79.835-53.224
		c-2.523-1.681-5.806-1.681-8.328,0l-79.835,53.224c-0.041,0.027-0.08,0.063-0.123,0.092c-0.117,0.082-0.228,0.17-0.338,0.258
		c-0.147,0.114-0.289,0.234-0.425,0.357c-0.105,0.093-0.202,0.193-0.302,0.294c-0.13,0.13-0.254,0.268-0.371,0.405
		c-0.09,0.105-0.177,0.216-0.26,0.325c-0.11,0.147-0.217,0.299-0.314,0.456c-0.076,0.114-0.147,0.229-0.216,0.349
		c-0.092,0.161-0.175,0.326-0.255,0.496c-0.058,0.119-0.117,0.243-0.168,0.368c-0.073,0.179-0.134,0.362-0.192,0.546
		c-0.04,0.12-0.083,0.239-0.118,0.363c-0.055,0.207-0.092,0.418-0.13,0.629c-0.019,0.11-0.046,0.217-0.061,0.326
		c-0.043,0.321-0.068,0.647-0.068,0.979v53.224c0,0.331,0.024,0.656,0.068,0.983c0.015,0.105,0.042,0.216,0.061,0.321
		c0.038,0.211,0.075,0.423,0.13,0.629c0.035,0.125,0.078,0.244,0.118,0.363c0.059,0.183,0.119,0.367,0.192,0.552
		c0.051,0.124,0.11,0.243,0.168,0.364c0.081,0.169,0.163,0.334,0.255,0.499c0.068,0.116,0.14,0.23,0.216,0.345
		c0.098,0.157,0.204,0.309,0.314,0.456c0.083,0.114,0.17,0.221,0.26,0.326c0.117,0.137,0.241,0.275,0.371,0.404
		c0.1,0.101,0.196,0.202,0.302,0.293c0.136,0.126,0.277,0.245,0.425,0.359c0.11,0.088,0.221,0.175,0.338,0.257
		c0.043,0.028,0.082,0.064,0.123,0.092l79.835,53.224c1.261,0.84,2.714,1.264,4.165,1.264c1.45,0,2.901-0.424,4.163-1.264
		l79.835-53.224c0.042-0.027,0.08-0.063,0.124-0.092c0.117-0.082,0.229-0.169,0.341-0.257c0.145-0.114,0.287-0.233,0.425-0.359
		c0.104-0.091,0.199-0.192,0.298-0.293c0.131-0.129,0.256-0.268,0.375-0.404c0.087-0.105,0.175-0.212,0.257-0.326
		c0.113-0.147,0.216-0.299,0.317-0.456c0.071-0.114,0.145-0.229,0.213-0.345c0.095-0.165,0.177-0.33,0.256-0.499
		c0.057-0.121,0.116-0.24,0.168-0.364c0.073-0.184,0.132-0.368,0.193-0.552c0.038-0.119,0.084-0.238,0.116-0.363
		c0.055-0.206,0.094-0.418,0.131-0.629c0.019-0.106,0.046-0.216,0.062-0.321c0.041-0.327,0.067-0.652,0.067-0.983v-53.224
		C599.342,357.059,599.315,356.732,599.274,356.411z M519.507,318.193l58.812,39.205l-26.271,17.574l-32.542-21.769V318.193z
		 M504.493,318.193v35.011l-32.54,21.769l-26.272-17.574L504.493,318.193z M439.672,371.44l18.78,12.561l-18.78,12.562V371.44z
		 M504.493,449.809l-58.812-39.206l26.271-17.568l32.541,21.765L504.493,449.809L504.493,449.809z M512.001,401.76l-26.55-17.759
		l26.55-17.757l26.547,17.757L512.001,401.76z M519.507,449.809v-35.01l32.542-21.765l26.271,17.568L519.507,449.809z
		 M584.328,396.562l-18.776-12.562l18.776-12.562V396.562z"/>
</g>
<text transform="matrix(1 0 0 1 278.481 115.0674)"><tspan x="0" y="0" fill="#FFFFFF" font-family="'Roboto-Regular'" font-size="41.9282">It’s time to test our skills:</tspan><tspan x="71.706" y="50.313" fill="#FFFFFF" font-family="'Roboto-Bold'" font-size="41.9282">CodePen.io</tspan><tspan x="289.332" y="50.313" fill="#FFFFFF" font-family="'Roboto-Regular'" font-size="41.9282"> time!</tspan></text>
<text transform="matrix(1 0 0 1 126.6035 221.4976)" fill="#F9672E" font-family="'Roboto-Regular'" font-size="41.9282">https://codepen.io/kostasx/pen/QaoRZN</text>
</svg>
