<?xml version="1.0" encoding="utf-8"?>
<!-- Generator: Adobe Illustrator 15.0.0, SVG Export Plug-In . SVG Version: 6.00 Build 0)  -->
<!DOCTYPE svg PUBLIC "-//W3C//DTD SVG 1.1//EN" "http://www.w3.org/Graphics/SVG/1.1/DTD/svg11.dtd">
<svg version="1.1" id="Layer_1" xmlns="http://www.w3.org/2000/svg" xmlns:xlink="http://www.w3.org/1999/xlink" x="0px" y="0px"
	 width="1024px" height="768px" viewBox="0 0 1024 768" enable-background="new 0 0 1024 768" xml:space="preserve">
<rect x="1" y="-2" fill="#0D2234" width="1023" height="769"/>
<g opacity="0.1">
	<rect x="-0.5" y="-2.5" fill="none" stroke="#FFFFFF" stroke-miterlimit="10" width="1023" height="769"/>
	<line fill="none" stroke="#FFFFFF" stroke-miterlimit="10" x1="4" y1="728.5" x2="1021" y2="728.5"/>
	<line fill="none" stroke="#FFFFFF" stroke-miterlimit="10" x1="4" y1="691.5" x2="1021" y2="691.5"/>
	<line fill="none" stroke="#FFFFFF" stroke-miterlimit="10" x1="4" y1="650.5" x2="1021" y2="650.5"/>
	<line fill="none" stroke="#FFFFFF" stroke-miterlimit="10" x1="4" y1="624.5" x2="1021" y2="624.5"/>
	<line fill="none" stroke="#FFFFFF" stroke-miterlimit="10" x1="4" y1="586.5" x2="1021" y2="586.5"/>
	<line fill="none" stroke="#FFFFFF" stroke-miterlimit="10" x1="4" y1="545.5" x2="1021" y2="545.5"/>
	<line fill="none" stroke="#FFFFFF" stroke-miterlimit="10" x1="4" y1="508.5" x2="1021" y2="508.5"/>
	<line fill="none" stroke="#FFFFFF" stroke-miterlimit="10" x1="4" y1="471.5" x2="1021" y2="471.5"/>
	<line fill="none" stroke="#FFFFFF" stroke-miterlimit="10" x1="4" y1="433.5" x2="1021" y2="433.5"/>
	<line fill="none" stroke="#FFFFFF" stroke-miterlimit="10" x1="4" y1="396.5" x2="1021" y2="396.5"/>
	<line fill="none" stroke="#FFFFFF" stroke-miterlimit="10" x1="4" y1="366.5" x2="1021" y2="366.5"/>
	<line fill="none" stroke="#FFFFFF" stroke-miterlimit="10" x1="4" y1="329.5" x2="1021" y2="329.5"/>
	<line fill="none" stroke="#FFFFFF" stroke-miterlimit="10" x1="4" y1="292.5" x2="1021" y2="292.5"/>
	<line fill="none" stroke="#FFFFFF" stroke-miterlimit="10" x1="4" y1="251.5" x2="1021" y2="251.5"/>
	<line fill="none" stroke="#FFFFFF" stroke-miterlimit="10" x1="4" y1="213.5" x2="1021" y2="213.5"/>
	<line fill="none" stroke="#FFFFFF" stroke-miterlimit="10" x1="4" y1="176.5" x2="1021" y2="176.5"/>
	<line fill="none" stroke="#FFFFFF" stroke-miterlimit="10" x1="4" y1="139.5" x2="1021" y2="139.5"/>
	<line fill="none" stroke="#FFFFFF" stroke-miterlimit="10" x1="4" y1="109.5" x2="1021" y2="109.5"/>
	<line fill="none" stroke="#FFFFFF" stroke-miterlimit="10" x1="4" y1="72.5" x2="1021" y2="72.5"/>
	<line fill="none" stroke="#FFFFFF" stroke-miterlimit="10" x1="4" y1="34.5" x2="1021" y2="34.5"/>
	<line fill="none" stroke="#FFFFFF" stroke-miterlimit="10" x1="977.5" y1="-1" x2="977.5" y2="760"/>
	<line fill="none" stroke="#FFFFFF" stroke-miterlimit="10" x1="925.5" y1="-1" x2="925.5" y2="760"/>
	<line fill="none" stroke="#FFFFFF" stroke-miterlimit="10" x1="877.5" y1="-1" x2="877.5" y2="760"/>
	<line fill="none" stroke="#FFFFFF" stroke-miterlimit="10" x1="825.5" y1="-1" x2="825.5" y2="760"/>
	<line fill="none" stroke="#FFFFFF" stroke-miterlimit="10" x1="780.5" y1="-1" x2="780.5" y2="760"/>
	<line fill="none" stroke="#FFFFFF" stroke-miterlimit="10" x1="734.5" y1="-1" x2="734.5" y2="760"/>
	<line fill="none" stroke="#FFFFFF" stroke-miterlimit="10" x1="682.5" y1="-1" x2="682.5" y2="760"/>
	<line fill="none" stroke="#FFFFFF" stroke-miterlimit="10" x1="637.5" y1="-1" x2="637.5" y2="760"/>
	<line fill="none" stroke="#FFFFFF" stroke-miterlimit="10" x1="585.5" y1="-1" x2="585.5" y2="760"/>
	<line fill="none" stroke="#FFFFFF" stroke-miterlimit="10" x1="537.5" y1="-1" x2="537.5" y2="760"/>
	<line fill="none" stroke="#FFFFFF" stroke-miterlimit="10" x1="491.5" y1="-1" x2="491.5" y2="760"/>
	<line fill="none" stroke="#FFFFFF" stroke-miterlimit="10" x1="439.5" y1="-1" x2="439.5" y2="760"/>
	<line fill="none" stroke="#FFFFFF" stroke-miterlimit="10" x1="394.5" y1="-1" x2="394.5" y2="760"/>
	<line fill="none" stroke="#FFFFFF" stroke-miterlimit="10" x1="342.5" y1="-1" x2="342.5" y2="760"/>
	<line fill="none" stroke="#FFFFFF" stroke-miterlimit="10" x1="294.5" y1="-1" x2="294.5" y2="760"/>
	<line fill="none" stroke="#FFFFFF" stroke-miterlimit="10" x1="248.5" y1="-1" x2="248.5" y2="760"/>
	<line fill="none" stroke="#FFFFFF" stroke-miterlimit="10" x1="197.5" y1="-1" x2="197.5" y2="760"/>
	<line fill="none" stroke="#FFFFFF" stroke-miterlimit="10" x1="151.5" y1="-1" x2="151.5" y2="760"/>
	<line fill="none" stroke="#FFFFFF" stroke-miterlimit="10" x1="99.5" y1="-1" x2="99.5" y2="760"/>
	<line fill="none" stroke="#FFFFFF" stroke-miterlimit="10" x1="54.5" y1="-1" x2="54.5" y2="760"/>
</g>
<text transform="matrix(1 0 0 1 296.415 115.0674)"><tspan x="0" y="0" fill="#FFFFFF" font-family="'Roboto-Regular'" font-size="41.9282">A Basic understanding </tspan><tspan x="-47.743" y="50.313" fill="#FFFFFF" font-family="'Roboto-Regular'" font-size="41.9282">of the </tspan><tspan x="70.487" y="50.313" fill="#F7BE2C" font-family="'Roboto-Bold'" font-size="41.9282">JavaScript</tspan><tspan x="271.878" y="50.313" fill="#FFFFFF" font-family="'Roboto-Regular'" font-size="41.9282"> Interpreter</tspan></text>
<rect x="217.806" y="222.562" fill="none" width="619.5" height="107.938"/>
<text transform="matrix(1 0 0 1 217.8057 240.5615)"><tspan x="0" y="0" fill="#FFFFFF" font-family="'Roboto-Regular'" font-size="24">Data manipulation and processing means that</tspan><tspan x="490.758" y="0" fill="#FFFFFF" font-family="'Roboto-Bold'" font-size="24"> </tspan><tspan x="496.734" y="0" fill="#F7BE2C" font-family="'Roboto-Bold'" font-size="24">JavaScript </tspan><tspan x="0" y="30" fill="#FFFFFF" font-family="'Roboto-Regular'" font-size="24">can read and act on data such as: numbers, user text, the </tspan><tspan x="0" y="60" fill="#FFFFFF" font-family="'Roboto-Regular'" font-size="24">contents of a file or a web page, image data, etc. </tspan></text>
<rect x="217.806" y="333.531" fill="none" width="607.694" height="70.469"/>
<text transform="matrix(1 0 0 1 217.8057 357.5308)"><tspan x="0" y="0" opacity="0.2" fill="#FFFFFF" font-family="'Roboto-Bold'" font-size="32">• Input / Output</tspan><tspan x="0" y="38.4" fill="#FFFFFF" font-family="'Roboto-Bold'" font-size="32">• Data Manipulation &amp; Processing</tspan></text>
<title>dv-interaction-auto-complete</title>
</svg>
