<?xml version="1.0" encoding="utf-8"?>
<!-- Generator: Adobe Illustrator 15.0.0, SVG Export Plug-In . SVG Version: 6.00 Build 0)  -->
<!DOCTYPE svg PUBLIC "-//W3C//DTD SVG 1.1//EN" "http://www.w3.org/Graphics/SVG/1.1/DTD/svg11.dtd">
<svg version="1.1" id="Layer_1" xmlns="http://www.w3.org/2000/svg" xmlns:xlink="http://www.w3.org/1999/xlink" x="0px" y="0px"
	 width="1024px" height="768px" viewBox="0 0 1024 768" enable-background="new 0 0 1024 768" xml:space="preserve">
<rect x="1" y="-2" fill="#0D2234" width="1023" height="769"/>
<g opacity="0.1">
	<rect x="-0.5" y="-2.5" fill="none" stroke="#FFFFFF" stroke-miterlimit="10" width="1023" height="769"/>
	<line fill="none" stroke="#FFFFFF" stroke-miterlimit="10" x1="4" y1="728.5" x2="1021" y2="728.5"/>
	<line fill="none" stroke="#FFFFFF" stroke-miterlimit="10" x1="4" y1="691.5" x2="1021" y2="691.5"/>
	<line fill="none" stroke="#FFFFFF" stroke-miterlimit="10" x1="4" y1="650.5" x2="1021" y2="650.5"/>
	<line fill="none" stroke="#FFFFFF" stroke-miterlimit="10" x1="4" y1="624.5" x2="1021" y2="624.5"/>
	<line fill="none" stroke="#FFFFFF" stroke-miterlimit="10" x1="4" y1="586.5" x2="1021" y2="586.5"/>
	<line fill="none" stroke="#FFFFFF" stroke-miterlimit="10" x1="4" y1="545.5" x2="1021" y2="545.5"/>
	<line fill="none" stroke="#FFFFFF" stroke-miterlimit="10" x1="4" y1="508.5" x2="1021" y2="508.5"/>
	<line fill="none" stroke="#FFFFFF" stroke-miterlimit="10" x1="4" y1="471.5" x2="1021" y2="471.5"/>
	<line fill="none" stroke="#FFFFFF" stroke-miterlimit="10" x1="4" y1="433.5" x2="1021" y2="433.5"/>
	<line fill="none" stroke="#FFFFFF" stroke-miterlimit="10" x1="4" y1="396.5" x2="1021" y2="396.5"/>
	<line fill="none" stroke="#FFFFFF" stroke-miterlimit="10" x1="4" y1="366.5" x2="1021" y2="366.5"/>
	<line fill="none" stroke="#FFFFFF" stroke-miterlimit="10" x1="4" y1="329.5" x2="1021" y2="329.5"/>
	<line fill="none" stroke="#FFFFFF" stroke-miterlimit="10" x1="4" y1="292.5" x2="1021" y2="292.5"/>
	<line fill="none" stroke="#FFFFFF" stroke-miterlimit="10" x1="4" y1="251.5" x2="1021" y2="251.5"/>
	<line fill="none" stroke="#FFFFFF" stroke-miterlimit="10" x1="4" y1="213.5" x2="1021" y2="213.5"/>
	<line fill="none" stroke="#FFFFFF" stroke-miterlimit="10" x1="4" y1="176.5" x2="1021" y2="176.5"/>
	<line fill="none" stroke="#FFFFFF" stroke-miterlimit="10" x1="4" y1="139.5" x2="1021" y2="139.5"/>
	<line fill="none" stroke="#FFFFFF" stroke-miterlimit="10" x1="4" y1="109.5" x2="1021" y2="109.5"/>
	<line fill="none" stroke="#FFFFFF" stroke-miterlimit="10" x1="4" y1="72.5" x2="1021" y2="72.5"/>
	<line fill="none" stroke="#FFFFFF" stroke-miterlimit="10" x1="4" y1="34.5" x2="1021" y2="34.5"/>
	<line fill="none" stroke="#FFFFFF" stroke-miterlimit="10" x1="977.5" y1="-1" x2="977.5" y2="760"/>
	<line fill="none" stroke="#FFFFFF" stroke-miterlimit="10" x1="925.5" y1="-1" x2="925.5" y2="760"/>
	<line fill="none" stroke="#FFFFFF" stroke-miterlimit="10" x1="877.5" y1="-1" x2="877.5" y2="760"/>
	<line fill="none" stroke="#FFFFFF" stroke-miterlimit="10" x1="825.5" y1="-1" x2="825.5" y2="760"/>
	<line fill="none" stroke="#FFFFFF" stroke-miterlimit="10" x1="780.5" y1="-1" x2="780.5" y2="760"/>
	<line fill="none" stroke="#FFFFFF" stroke-miterlimit="10" x1="734.5" y1="-1" x2="734.5" y2="760"/>
	<line fill="none" stroke="#FFFFFF" stroke-miterlimit="10" x1="682.5" y1="-1" x2="682.5" y2="760"/>
	<line fill="none" stroke="#FFFFFF" stroke-miterlimit="10" x1="637.5" y1="-1" x2="637.5" y2="760"/>
	<line fill="none" stroke="#FFFFFF" stroke-miterlimit="10" x1="585.5" y1="-1" x2="585.5" y2="760"/>
	<line fill="none" stroke="#FFFFFF" stroke-miterlimit="10" x1="537.5" y1="-1" x2="537.5" y2="760"/>
	<line fill="none" stroke="#FFFFFF" stroke-miterlimit="10" x1="491.5" y1="-1" x2="491.5" y2="760"/>
	<line fill="none" stroke="#FFFFFF" stroke-miterlimit="10" x1="439.5" y1="-1" x2="439.5" y2="760"/>
	<line fill="none" stroke="#FFFFFF" stroke-miterlimit="10" x1="394.5" y1="-1" x2="394.5" y2="760"/>
	<line fill="none" stroke="#FFFFFF" stroke-miterlimit="10" x1="342.5" y1="-1" x2="342.5" y2="760"/>
	<line fill="none" stroke="#FFFFFF" stroke-miterlimit="10" x1="294.5" y1="-1" x2="294.5" y2="760"/>
	<line fill="none" stroke="#FFFFFF" stroke-miterlimit="10" x1="248.5" y1="-1" x2="248.5" y2="760"/>
	<line fill="none" stroke="#FFFFFF" stroke-miterlimit="10" x1="197.5" y1="-1" x2="197.5" y2="760"/>
	<line fill="none" stroke="#FFFFFF" stroke-miterlimit="10" x1="151.5" y1="-1" x2="151.5" y2="760"/>
	<line fill="none" stroke="#FFFFFF" stroke-miterlimit="10" x1="99.5" y1="-1" x2="99.5" y2="760"/>
	<line fill="none" stroke="#FFFFFF" stroke-miterlimit="10" x1="54.5" y1="-1" x2="54.5" y2="760"/>
</g>
<path fill="none" d="M348.855,472.992c0.063-0.156,0.13-0.315,0.193-0.466C348.98,472.681,348.916,472.82,348.855,472.992z"/>
<path fill="none" d="M348.377,474.229l0.159-0.407C348.479,473.945,348.427,474.087,348.377,474.229z"/>
<path fill="none" d="M349.422,471.659c0.076-0.163,0.154-0.325,0.234-0.485C349.591,471.338,349.51,471.497,349.422,471.659z"/>
<path fill="none" d="M349.994,470.554c0.126-0.239,0.256-0.476,0.389-0.708C350.25,470.078,350.12,470.314,349.994,470.554z"/>
<path fill="none" d="M351.349,468.248c0.215-0.33,0.436-0.654,0.665-0.976C351.784,467.591,351.563,467.916,351.349,468.248z"/>
<path fill="none" d="M350.733,469.229c0.109-0.184,0.22-0.365,0.335-0.545C350.953,468.863,350.843,469.045,350.733,469.229z"/>
<path fill="none" d="M347.939,475.561c0.021-0.086,0.051-0.176,0.075-0.262C347.986,475.385,347.961,475.47,347.939,475.561z"/>
<path fill="none" d="M347.26,478.246l0.025-0.131L347.26,478.246z"/>
<path fill="none" d="M347.002,479.75c0.018-0.113,0.035-0.229,0.055-0.347C347.037,479.506,347.02,479.622,347.002,479.75z"/>
<path fill="none" d="M347.56,476.92l0.095-0.378L347.56,476.92z"/>
<path fill="none" d="M353.963,464.811c0.187-0.212,0.377-0.408,0.573-0.627C354.34,464.391,354.149,464.599,353.963,464.811z"/>
<path fill="none" d="M346.727,482.641c0-0.11,0-0.225,0-0.336C346.735,482.416,346.73,482.53,346.727,482.641z"/>
<path fill="none" d="M352.906,466.073c0.328-0.414,0.67-0.823,1.021-1.223C353.576,465.247,353.234,465.654,352.906,466.073z"/>
<path fill="none" d="M356.57,462.223c-0.662,0.58-1.297,1.187-1.904,1.827C355.273,463.409,355.908,462.803,356.57,462.223z"/>
<path fill="none" d="M352.245,466.942c0.147-0.2,0.297-0.399,0.448-0.595C352.543,466.543,352.393,466.742,352.245,466.942z"/>
<path fill="none" d="M346.836,481.051"/>
<text transform="matrix(1 0 0 1 296.415 115.0674)"><tspan x="0" y="0" fill="#FFFFFF" font-family="'Roboto-Regular'" font-size="41.9282">A Basic understanding </tspan><tspan x="-47.743" y="50.313" fill="#FFFFFF" font-family="'Roboto-Regular'" font-size="41.9282">of the </tspan><tspan x="70.487" y="50.313" fill="#F7BE2C" font-family="'Roboto-Bold'" font-size="41.9282">JavaScript</tspan><tspan x="271.878" y="50.313" fill="#FFFFFF" font-family="'Roboto-Regular'" font-size="41.9282"> Interpreter</tspan></text>
<rect x="217.806" y="222.562" fill="none" width="619.5" height="107.938"/>
<text transform="matrix(1 0 0 1 217.8057 240.5615)"><tspan x="0" y="0" fill="#FFFFFF" font-family="'Roboto-Regular'" font-size="24">Dealing with Input means that the interpreter has to deal </tspan><tspan x="0" y="30" fill="#FFFFFF" font-family="'Roboto-Regular'" font-size="24">with user input such</tspan><tspan x="214.172" y="30" fill="#FFFFFF" font-family="'Roboto-Bold'" font-size="24"> mouse clicks</tspan><tspan x="362.133" y="30" fill="#FFFFFF" font-family="'Roboto-Regular'" font-size="24">, entering text into</tspan><tspan x="552.715" y="30" fill="#FFFFFF" font-family="'Roboto-Bold'" font-size="24"> input </tspan><tspan x="0" y="60" fill="#FFFFFF" font-family="'Roboto-Bold'" font-size="24">forms</tspan><tspan x="64.043" y="60" fill="#FFFFFF" font-family="'Roboto-Regular'" font-size="24"> or even </tspan><tspan x="153.973" y="60" fill="#FFFFFF" font-family="'Roboto-Bold'" font-size="24">speech</tspan><tspan x="231.715" y="60" fill="#FFFFFF" font-family="'Roboto-Regular'" font-size="24">.</tspan></text>
<rect x="217.806" y="333.531" fill="none" width="607.694" height="70.469"/>
<text transform="matrix(1 0 0 1 217.8057 357.5308)"><tspan x="0" y="0" fill="#FFFFFF" font-family="'Roboto-Bold'" font-size="32">• Input </tspan><tspan x="101.422" y="0" opacity="0.2" fill="#FFFFFF" font-family="'Roboto-Bold'" font-size="32">/ Output</tspan><tspan x="0" y="38.4" opacity="0.2" fill="#FFFFFF" font-family="'Roboto-Bold'" font-size="32">• Data Manipulation (or Processing)</tspan></text>
<g>
	<path fill="#FFFFFF" d="M165.958,522.648c-1.043,0.574-1.754,1.684-1.754,2.954v9.776c0,1.27,0.711,2.381,1.754,2.952
		c0.047,0.024,0.094,0.043,0.138,0.065v-0.065c0.439,0.261,0.944,0.412,1.473,0.412c0.531,0,1.034-0.151,1.472-0.412v0.065
		c0.045-0.022,0.094-0.041,0.138-0.065c1.043-0.571,1.754-1.683,1.754-2.952v-9.776c0-1.271-0.71-2.38-1.754-2.952
		c-0.044-0.023-0.093-0.042-0.138-0.065v0.065c-0.438-0.259-0.941-0.412-1.472-0.412c-0.53,0-1.034,0.153-1.473,0.412v-0.065
		C166.051,522.607,166.004,522.627,165.958,522.648z"/>
	<path fill="#FFFFFF" d="M131.825,540.739v6.61c10.168,5.738,21.847,9.098,34.271,9.345v-8.141
		c-0.045-0.014-0.091-0.021-0.138-0.033c-2.695-0.716-4.695-3.185-4.695-6.098v-16.82c0-2.915,2-5.383,4.695-6.097
		c0.047-0.013,0.094-0.021,0.138-0.033v-8.168h-4.834C145.073,511.305,131.825,524.552,131.825,540.739z"/>
	<path fill="#FFFFFF" d="M173.878,511.305h-4.837v8.167c0.045,0.012,0.094,0.021,0.138,0.034c2.699,0.713,4.7,3.181,4.7,6.097
		v16.818c0,2.914-2.001,5.384-4.7,6.098c-0.044,0.013-0.093,0.021-0.138,0.033v8.141c12.425-0.247,24.105-3.606,34.271-9.344v-6.61
		C203.312,524.552,190.065,511.305,173.878,511.305z"/>
	<path fill="#FFFFFF" d="M131.825,550.705v36.289c0,16.191,13.249,29.438,29.437,29.438h12.616
		c16.188,0,29.434-13.246,29.434-29.438v-36.289c-10.655,5.713-22.83,8.958-35.743,8.958S142.481,556.421,131.825,550.705z"/>
	<path fill="#FFFFFF" d="M170.048,498.344c0.669-1.578,1.633-2.98,2.861-4.168l0.216-0.207c1.517-1.467,2.701-3.193,3.526-5.135
		c0.824-1.941,1.239-3.997,1.239-6.104v-8.009h-2.94v8.009c0,1.71-0.339,3.377-1.008,4.954c-0.668,1.576-1.631,2.978-2.859,4.168
		l-0.217,0.207c-1.517,1.466-2.704,3.193-3.526,5.137c-0.823,1.941-1.243,3.995-1.243,6.104v8.007h2.945v-8.007
		C169.041,501.587,169.381,499.919,170.048,498.344z"/>
</g>
<g>
	<text transform="matrix(1 0 0 1 381.1011 573.998)" fill="#FFFFFF" font-family="'ArialMT'" font-size="34.4808">Be </text>
	<text transform="matrix(1 0 0 1 436.8794 573.998)" fill="#FFFFFF" font-family="'ArialMT'" font-size="34.4808">lgium</text>
	
		<rect x="360.774" y="530.49" fill="none" stroke="#FFFFFF" stroke-width="8" stroke-miterlimit="10" width="251.31" height="64.676"/>
	
		<line fill="none" stroke="#FFFFFF" stroke-width="4" stroke-miterlimit="10" x1="429.362" y1="540.654" x2="429.362" y2="583.155"/>
</g>
<g>
	<path fill="#FFFFFF" d="M793.08,620.195h-57.742v-34.209c-9.525-8.782-14.935-21.06-14.935-34.106
		c0-25.597,20.824-46.419,46.42-46.419c20.896,0,39.315,14.076,44.79,34.23l0.171,0.621l0.345,7.611l14.009,19.645l-12.314,8.944
		v6.842c0,8.238-6.702,14.942-14.946,14.942h-5.795L793.08,620.195L793.08,620.195z M746.986,608.549h34.447v-21.895h17.441
		c1.821,0,3.3-1.481,3.3-3.299v-12.772l7.776-5.648l-9.306-13.045l-0.441-9.736c-4.297-14.776-17.938-25.041-33.384-25.041
		c-19.173,0-34.771,15.599-34.771,34.771c0,10.482,4.662,20.301,12.794,26.938l2.142,1.747L746.986,608.549L746.986,608.549z"/>
	<path fill="#FFFFFF" d="M839.109,588.533l-8.234-8.234c5.253-5.255,5.253-13.805-0.002-19.061l8.238-8.234
		C848.904,562.8,848.904,578.74,839.109,588.533z"/>
	<path fill="#FFFFFF" d="M854.831,600.936l-8.235-8.235c12.092-12.091,12.092-31.769,0-43.861l8.235-8.235
		C871.46,557.238,871.46,584.303,854.831,600.936z"/>
	<path fill="#FFFFFF" d="M872.891,612.562l-8.237-8.234c18.501-18.505,18.501-48.612,0.004-67.115l8.233-8.234
		C895.937,552.018,895.937,589.515,872.891,612.562z"/>
</g>
</svg>
