<?xml version="1.0" encoding="utf-8"?>
<!-- Generator: Adobe Illustrator 15.0.0, SVG Export Plug-In . SVG Version: 6.00 Build 0)  -->
<!DOCTYPE svg PUBLIC "-//W3C//DTD SVG 1.1//EN" "http://www.w3.org/Graphics/SVG/1.1/DTD/svg11.dtd">
<svg version="1.1" id="Layer_1" xmlns="http://www.w3.org/2000/svg" xmlns:xlink="http://www.w3.org/1999/xlink" x="0px" y="0px"
	 width="1024px" height="768px" viewBox="0 0 1024 768" enable-background="new 0 0 1024 768" xml:space="preserve">
<rect x="1" y="-1" fill="#0D2234" width="1023" height="769"/>
<g opacity="0.1">
	<rect x="-0.5" y="-1.5" fill="none" stroke="#FFFFFF" stroke-miterlimit="10" width="1023" height="769"/>
	<line fill="none" stroke="#FFFFFF" stroke-miterlimit="10" x1="4" y1="729.5" x2="1021" y2="729.5"/>
	<line fill="none" stroke="#FFFFFF" stroke-miterlimit="10" x1="4" y1="692.5" x2="1021" y2="692.5"/>
	<line fill="none" stroke="#FFFFFF" stroke-miterlimit="10" x1="4" y1="651.5" x2="1021" y2="651.5"/>
	<line fill="none" stroke="#FFFFFF" stroke-miterlimit="10" x1="4" y1="625.5" x2="1021" y2="625.5"/>
	<line fill="none" stroke="#FFFFFF" stroke-miterlimit="10" x1="4" y1="587.5" x2="1021" y2="587.5"/>
	<line fill="none" stroke="#FFFFFF" stroke-miterlimit="10" x1="4" y1="546.5" x2="1021" y2="546.5"/>
	<line fill="none" stroke="#FFFFFF" stroke-miterlimit="10" x1="4" y1="509.5" x2="1021" y2="509.5"/>
	<line fill="none" stroke="#FFFFFF" stroke-miterlimit="10" x1="4" y1="472.5" x2="1021" y2="472.5"/>
	<line fill="none" stroke="#FFFFFF" stroke-miterlimit="10" x1="4" y1="434.5" x2="1021" y2="434.5"/>
	<line fill="none" stroke="#FFFFFF" stroke-miterlimit="10" x1="4" y1="397.5" x2="1021" y2="397.5"/>
	<line fill="none" stroke="#FFFFFF" stroke-miterlimit="10" x1="4" y1="367.5" x2="1021" y2="367.5"/>
	<line fill="none" stroke="#FFFFFF" stroke-miterlimit="10" x1="4" y1="330.5" x2="1021" y2="330.5"/>
	<line fill="none" stroke="#FFFFFF" stroke-miterlimit="10" x1="4" y1="293.5" x2="1021" y2="293.5"/>
	<line fill="none" stroke="#FFFFFF" stroke-miterlimit="10" x1="4" y1="252.5" x2="1021" y2="252.5"/>
	<line fill="none" stroke="#FFFFFF" stroke-miterlimit="10" x1="4" y1="214.5" x2="1021" y2="214.5"/>
	<line fill="none" stroke="#FFFFFF" stroke-miterlimit="10" x1="4" y1="177.5" x2="1021" y2="177.5"/>
	<line fill="none" stroke="#FFFFFF" stroke-miterlimit="10" x1="4" y1="140.5" x2="1021" y2="140.5"/>
	<line fill="none" stroke="#FFFFFF" stroke-miterlimit="10" x1="4" y1="110.5" x2="1021" y2="110.5"/>
	<line fill="none" stroke="#FFFFFF" stroke-miterlimit="10" x1="4" y1="73.5" x2="1021" y2="73.5"/>
	<line fill="none" stroke="#FFFFFF" stroke-miterlimit="10" x1="4" y1="35.5" x2="1021" y2="35.5"/>
	<line fill="none" stroke="#FFFFFF" stroke-miterlimit="10" x1="977.5" y1="0" x2="977.5" y2="761"/>
	<line fill="none" stroke="#FFFFFF" stroke-miterlimit="10" x1="925.5" y1="0" x2="925.5" y2="761"/>
	<line fill="none" stroke="#FFFFFF" stroke-miterlimit="10" x1="877.5" y1="0" x2="877.5" y2="761"/>
	<line fill="none" stroke="#FFFFFF" stroke-miterlimit="10" x1="825.5" y1="0" x2="825.5" y2="761"/>
	<line fill="none" stroke="#FFFFFF" stroke-miterlimit="10" x1="780.5" y1="0" x2="780.5" y2="761"/>
	<line fill="none" stroke="#FFFFFF" stroke-miterlimit="10" x1="734.5" y1="0" x2="734.5" y2="761"/>
	<line fill="none" stroke="#FFFFFF" stroke-miterlimit="10" x1="682.5" y1="0" x2="682.5" y2="761"/>
	<line fill="none" stroke="#FFFFFF" stroke-miterlimit="10" x1="637.5" y1="0" x2="637.5" y2="761"/>
	<line fill="none" stroke="#FFFFFF" stroke-miterlimit="10" x1="585.5" y1="0" x2="585.5" y2="761"/>
	<line fill="none" stroke="#FFFFFF" stroke-miterlimit="10" x1="537.5" y1="0" x2="537.5" y2="761"/>
	<line fill="none" stroke="#FFFFFF" stroke-miterlimit="10" x1="491.5" y1="0" x2="491.5" y2="761"/>
	<line fill="none" stroke="#FFFFFF" stroke-miterlimit="10" x1="439.5" y1="0" x2="439.5" y2="761"/>
	<line fill="none" stroke="#FFFFFF" stroke-miterlimit="10" x1="394.5" y1="0" x2="394.5" y2="761"/>
	<line fill="none" stroke="#FFFFFF" stroke-miterlimit="10" x1="342.5" y1="0" x2="342.5" y2="761"/>
	<line fill="none" stroke="#FFFFFF" stroke-miterlimit="10" x1="294.5" y1="0" x2="294.5" y2="761"/>
	<line fill="none" stroke="#FFFFFF" stroke-miterlimit="10" x1="248.5" y1="0" x2="248.5" y2="761"/>
	<line fill="none" stroke="#FFFFFF" stroke-miterlimit="10" x1="197.5" y1="0" x2="197.5" y2="761"/>
	<line fill="none" stroke="#FFFFFF" stroke-miterlimit="10" x1="151.5" y1="0" x2="151.5" y2="761"/>
	<line fill="none" stroke="#FFFFFF" stroke-miterlimit="10" x1="99.5" y1="0" x2="99.5" y2="761"/>
	<line fill="none" stroke="#FFFFFF" stroke-miterlimit="10" x1="54.5" y1="0" x2="54.5" y2="761"/>
</g>
<path fill="none" d="M348.855,472.992c0.063-0.156,0.13-0.315,0.193-0.466C348.98,472.681,348.916,472.82,348.855,472.992z"/>
<path fill="none" d="M348.377,474.229l0.159-0.407C348.479,473.945,348.427,474.087,348.377,474.229z"/>
<path fill="none" d="M349.422,471.659c0.076-0.163,0.154-0.325,0.234-0.485C349.591,471.338,349.51,471.497,349.422,471.659z"/>
<path fill="none" d="M349.994,470.554c0.126-0.239,0.256-0.476,0.389-0.708C350.25,470.078,350.12,470.314,349.994,470.554z"/>
<path fill="none" d="M351.349,468.248c0.215-0.33,0.436-0.654,0.665-0.976C351.784,467.591,351.563,467.916,351.349,468.248z"/>
<path fill="none" d="M350.733,469.229c0.109-0.184,0.22-0.365,0.335-0.545C350.953,468.863,350.843,469.045,350.733,469.229z"/>
<path fill="none" d="M347.939,475.561c0.021-0.086,0.051-0.176,0.075-0.262C347.986,475.385,347.961,475.47,347.939,475.561z"/>
<path fill="none" d="M347.26,478.246l0.025-0.131L347.26,478.246z"/>
<path fill="none" d="M347.002,479.75c0.018-0.113,0.035-0.229,0.055-0.347C347.037,479.506,347.02,479.622,347.002,479.75z"/>
<path fill="none" d="M347.56,476.92l0.095-0.378L347.56,476.92z"/>
<path fill="none" d="M353.963,464.811c0.187-0.212,0.377-0.408,0.573-0.627C354.34,464.391,354.149,464.599,353.963,464.811z"/>
<path fill="none" d="M346.727,482.641c0-0.11,0-0.225,0-0.336C346.735,482.416,346.73,482.53,346.727,482.641z"/>
<path fill="none" d="M352.906,466.073c0.328-0.414,0.67-0.823,1.021-1.223C353.576,465.247,353.234,465.654,352.906,466.073z"/>
<path fill="none" d="M356.57,462.223c-0.662,0.58-1.297,1.187-1.904,1.827C355.273,463.409,355.908,462.803,356.57,462.223z"/>
<path fill="none" d="M352.245,466.942c0.147-0.2,0.297-0.399,0.448-0.595C352.543,466.543,352.393,466.742,352.245,466.942z"/>
<path fill="none" d="M346.836,481.051"/>
<text transform="matrix(1 0 0 1 296.415 115.0674)"><tspan x="0" y="0" fill="#FFFFFF" font-family="'Roboto-Regular'" font-size="41.9282">A Basic understanding </tspan><tspan x="-47.743" y="50.313" fill="#FFFFFF" font-family="'Roboto-Regular'" font-size="41.9282">of the </tspan><tspan x="70.487" y="50.313" fill="#F7BE2C" font-family="'Roboto-Bold'" font-size="41.9282">JavaScript</tspan><tspan x="271.878" y="50.313" fill="#FFFFFF" font-family="'Roboto-Regular'" font-size="41.9282"> Interpreter</tspan></text>
<rect x="217.806" y="222.562" fill="none" width="619.5" height="107.938"/>
<text transform="matrix(1 0 0 1 217.8057 240.5615)"><tspan x="0" y="0" fill="#FFFFFF" font-family="'Roboto-Regular'" font-size="24">You can think of the </tspan><tspan x="217.98" y="0" fill="#F7BE2C" font-family="'Roboto-Bold'" font-size="24">JavaScript</tspan><tspan x="333.258" y="0" fill="#FFFFFF" font-family="'Roboto-Bold'" font-size="24"> </tspan><tspan x="339.234" y="0" fill="#FFFFFF" font-family="'Roboto-Regular'" font-size="24">interpreter, as a robot that </tspan><tspan x="0" y="30" fill="#FFFFFF" font-family="'Roboto-Regular'" font-size="24">lives inside the browser. It accepts a series of statements, </tspan><tspan x="0" y="60" fill="#FFFFFF" font-family="'Roboto-Regular'" font-size="24">interprets them and executes them one by one. </tspan></text>
<g>
	<path fill="#78909C" d="M519.97,554.248H502.03c-5.111,0-9.253-4.141-9.253-9.252V490.47h36.445v54.526
		C529.223,550.107,525.081,554.248,519.97,554.248z"/>
	<path fill="#90A4AE" d="M474.555,403.772v-27.051c0-2.591,2.105-4.696,4.697-4.696h63.496c2.594,0,4.697,2.105,4.697,4.696v27.051
		c0,2.593-2.104,4.698-4.697,4.698h-63.496C476.66,408.471,474.555,406.365,474.555,403.772z M457.531,431.407
		c-2.431-0.655-4.934,0.77-5.595,3.198l-12.9,47.306c-5.768,1.603-10.037,6.842-10.037,13.114c0,2.52,2.041,4.556,4.556,4.556
		c2.515,0,4.555-2.036,4.555-4.556c0-2.515,2.045-4.556,4.555-4.556c2.511,0,4.556,2.041,4.556,4.556
		c0,2.52,2.041,4.556,4.555,4.556c2.516,0,4.555-2.036,4.555-4.556c0-5.526-3.311-10.271-8.04-12.423l12.437-45.601
		C461.389,434.573,459.959,432.072,457.531,431.407z M582.964,481.911l-12.9-47.306c-0.666-2.434-3.186-3.851-5.596-3.198
		c-2.428,0.665-3.862,3.166-3.199,5.595l12.438,45.601c-4.729,2.151-8.04,6.896-8.04,12.423c0,2.52,2.035,4.556,4.555,4.556
		s4.557-2.036,4.557-4.556c0-2.515,2.039-4.556,4.555-4.556s4.555,2.041,4.555,4.556c0,2.52,2.037,4.556,4.557,4.556
		s4.557-2.036,4.557-4.556C593.001,488.753,588.73,483.514,582.964,481.911z M544.601,422.137h-67.203
		c-7.108,0-12.665,6.136-11.953,13.212l6.71,67.08c0.609,6.141,5.78,10.819,11.953,10.819h53.784
		c6.174,0,11.344-4.679,11.953-10.819l6.711-67.08C557.263,428.272,551.708,422.137,544.601,422.137z"/>
	<rect x="492.777" y="444.915" fill="#607D8B" width="36.445" height="22.777"/>
	<path fill="#455A64" d="M524.667,399.358h-27.333c-5.011,0-9.113-4.099-9.113-9.11l0,0c0-5.011,4.102-9.111,9.113-9.111h27.333
		c5.011,0,9.111,4.101,9.111,9.111l0,0C533.778,395.26,529.678,399.358,524.667,399.358z M465.445,435.804
		c0-5.034-4.079-9.111-9.113-9.111s-9.11,4.077-9.11,9.111s4.076,9.111,9.11,9.111S465.445,440.838,465.445,435.804z
		 M529.223,513.248h-36.445v9.111h36.445V513.248z M529.223,531.471h-9.112c-2.515,0-4.556,2.041-4.556,4.556l0,0
		c0,2.515,2.041,4.554,4.556,4.554h9.112V531.471z M506.444,536.026L506.444,536.026c0-2.515-2.041-4.556-4.555-4.556h-9.111v9.109
		h9.111C504.403,540.58,506.444,538.541,506.444,536.026z M565.667,444.915c5.033,0,9.111-4.077,9.111-9.111
		s-4.078-9.111-9.111-9.111c-5.034,0-9.111,4.077-9.111,9.111S560.633,444.915,565.667,444.915z M515.555,414.287v-5.816h-9.111
		v5.816c-2.71,1.577-4.555,4.483-4.555,7.85h4.555h9.111h4.556C520.11,418.775,518.265,415.867,515.555,414.287z"/>
	<path fill="#18FFFF" d="M492.777,390.248c0-2.514,2.041-4.557,4.557-4.557c2.514,0,4.555,2.043,4.555,4.557
		c0,2.515-2.041,4.555-4.555,4.555C494.818,394.803,492.777,392.763,492.777,390.248z M524.667,394.803
		c2.514,0,4.556-2.04,4.556-4.555c0-2.514-2.042-4.557-4.556-4.557c-2.515,0-4.557,2.043-4.557,4.557
		C520.11,392.763,522.152,394.803,524.667,394.803z"/>
</g>
<text transform="matrix(1 0 0 1 84.5918 471.417)" fill="#F7BE2C" font-family="'Hack-Regular'" font-size="41.2473">statements</text>
<text transform="matrix(1 0 0 1 729.5 471.417)" fill="#F9672E" font-family="'Hack-Regular'" font-size="41.2473">actions</text>
<path id="_x38_1BC7163_x5F_start_x5F_arrow_x5F_path_2_" fill="#F7BE2C" stroke="#5D5D5D" stroke-width="0.25" stroke-linecap="square" stroke-miterlimit="10" d="
	M398.582,457.466l-40.159,14.855l-0.152-29.292L398.582,457.466z"/>
<path id="_x38_1BC7163_x5F_start_x5F_arrow_x5F_path_3_" fill="#F9672E" d="M676.155,457.466l-40.159,14.855l-0.151-29.292
	L676.155,457.466z"/>
<path fill="#F7BE2C" d="M509.128,611.901c0-1.84-0.652-3.409-1.951-4.71c-1.3-1.299-2.869-1.951-4.71-1.951
	c-1.84,0-3.409,0.652-4.709,1.951c-1.3,1.301-1.952,2.87-1.952,4.71s0.652,3.409,1.952,4.709s2.869,1.952,4.709,1.952
	c1.841,0,3.41-0.652,4.71-1.952C508.481,615.307,509.128,613.736,509.128,611.901L509.128,611.901z M529.106,625.22
	c0-0.903-0.33-1.683-0.987-2.34c-0.658-0.658-1.438-0.988-2.34-0.988c-0.901,0-1.682,0.33-2.34,0.988
	c-0.656,0.657-0.988,1.437-0.988,2.34c0,0.917,0.325,1.702,0.973,2.354c0.653,0.652,1.438,0.973,2.355,0.973
	s1.702-0.326,2.354-0.973C528.781,626.922,529.106,626.137,529.106,625.22L529.106,625.22z M529.106,598.584
	c0-0.902-0.33-1.683-0.987-2.34c-0.658-0.657-1.438-0.988-2.34-0.988c-0.901,0-1.682,0.331-2.34,0.988
	c-0.656,0.657-0.988,1.438-0.988,2.34c0,0.917,0.325,1.702,0.973,2.354c0.653,0.652,1.438,0.974,2.355,0.974
	s1.702-0.326,2.354-0.974C528.781,600.286,529.106,599.501,529.106,598.584L529.106,598.584z M519.118,609.531v4.812
	c0,0.173-0.062,0.341-0.185,0.51c-0.121,0.163-0.259,0.255-0.417,0.275l-4.032,0.626c-0.188,0.606-0.469,1.265-0.83,1.978
	c0.592,0.831,1.371,1.83,2.339,2.992c0.123,0.173,0.184,0.347,0.184,0.521c0,0.209-0.061,0.371-0.184,0.494
	c-0.396,0.52-1.115,1.294-2.145,2.328c-1.035,1.03-1.713,1.55-2.045,1.55c-0.188,0-0.371-0.061-0.545-0.184l-2.991-2.339
	c-0.643,0.332-1.311,0.596-2.004,0.805c-0.188,1.87-0.393,3.217-0.596,4.032c-0.123,0.418-0.383,0.621-0.78,0.621h-4.836
	c-0.189,0-0.367-0.065-0.521-0.193c-0.157-0.127-0.244-0.28-0.26-0.454l-0.597-3.979c-0.591-0.175-1.238-0.444-1.951-0.806
	l-3.068,2.313c-0.123,0.123-0.296,0.184-0.521,0.184c-0.188,0-0.372-0.071-0.545-0.209c-2.497-2.309-3.746-3.694-3.746-4.163
	c0-0.158,0.062-0.322,0.183-0.495c0.174-0.244,0.53-0.704,1.066-1.376c0.54-0.678,0.948-1.203,1.223-1.586
	c-0.397-0.764-0.703-1.473-0.912-2.13l-3.955-0.621c-0.174-0.016-0.321-0.103-0.443-0.245c-0.122-0.147-0.184-0.316-0.184-0.51
	v-4.812c0-0.173,0.062-0.341,0.184-0.509c0.122-0.163,0.26-0.255,0.418-0.275l4.031-0.622c0.188-0.606,0.469-1.264,0.831-1.978
	c-0.592-0.83-1.371-1.83-2.339-2.992c-0.123-0.188-0.185-0.366-0.185-0.52c0-0.208,0.062-0.382,0.185-0.52
	c0.382-0.52,1.09-1.295,2.129-2.313c1.04-1.021,1.723-1.535,2.055-1.535c0.188,0,0.372,0.062,0.546,0.185l2.991,2.339
	c0.591-0.311,1.259-0.592,2.003-0.831c0.189-1.87,0.393-3.205,0.597-4.006c0.122-0.418,0.382-0.621,0.779-0.621h4.837
	c0.188,0,0.367,0.065,0.52,0.192c0.158,0.128,0.245,0.28,0.261,0.454l0.596,3.98c0.591,0.174,1.238,0.443,1.952,0.806l3.068-2.313
	c0.138-0.123,0.311-0.185,0.521-0.185c0.188,0,0.371,0.071,0.545,0.21c2.497,2.308,3.745,3.694,3.745,4.163
	c0,0.158-0.061,0.321-0.183,0.495c-0.209,0.274-0.571,0.743-1.091,1.406c-0.521,0.657-0.912,1.178-1.172,1.56
	c0.396,0.831,0.692,1.544,0.882,2.13l3.965,0.582c0.173,0.035,0.321,0.127,0.442,0.274
	C519.057,609.175,519.118,609.343,519.118,609.531L519.118,609.531z M535.769,623.399v3.645c0,0.274-1.289,0.545-3.873,0.805
	c-0.21,0.469-0.469,0.918-0.78,1.351c0.888,1.962,1.325,3.154,1.325,3.589c0,0.071-0.036,0.132-0.107,0.183
	c-2.114,1.229-3.189,1.846-3.227,1.846c-0.137,0-0.539-0.408-1.196-1.224c-0.658-0.815-1.112-1.401-1.352-1.769
	c-0.347,0.036-0.605,0.051-0.779,0.051s-0.433-0.015-0.78-0.051c-0.244,0.361-0.693,0.953-1.351,1.769s-1.055,1.224-1.197,1.224
	c-0.036,0-1.111-0.617-3.227-1.846c-0.071-0.051-0.106-0.111-0.106-0.183c0-0.435,0.443-1.632,1.325-3.589
	c-0.311-0.433-0.571-0.887-0.779-1.351c-2.585-0.26-3.874-0.53-3.874-0.805v-3.645c0-0.275,1.289-0.546,3.874-0.806
	c0.224-0.505,0.483-0.953,0.779-1.35c-0.888-1.963-1.325-3.155-1.325-3.589c0-0.071,0.035-0.133,0.106-0.184
	c0.071-0.036,0.372-0.208,0.912-0.52c0.536-0.312,1.05-0.606,1.534-0.882s0.744-0.413,0.78-0.418c0.138,0,0.54,0.402,1.197,1.208
	s1.111,1.392,1.351,1.759c0.348-0.037,0.606-0.052,0.78-0.052s0.433,0.015,0.779,0.052c0.887-1.233,1.682-2.202,2.391-2.916
	l0.157-0.051c0.072,0,1.147,0.606,3.227,1.819c0.071,0.051,0.107,0.112,0.107,0.184c0,0.434-0.443,1.632-1.325,3.589
	c0.296,0.396,0.556,0.851,0.78,1.35C534.479,622.854,535.769,623.119,535.769,623.399L535.769,623.399z M535.769,596.759v3.639
	c0,0.276-1.289,0.546-3.873,0.807c-0.21,0.469-0.469,0.916-0.78,1.35c0.888,1.963,1.325,3.155,1.325,3.588
	c0,0.071-0.036,0.133-0.107,0.185c-2.114,1.228-3.189,1.844-3.227,1.844c-0.137,0-0.539-0.407-1.196-1.223
	c-0.658-0.815-1.112-1.401-1.352-1.769c-0.347,0.035-0.605,0.051-0.779,0.051s-0.433-0.016-0.78-0.051
	c-0.244,0.361-0.693,0.953-1.351,1.769s-1.055,1.223-1.197,1.223c-0.036,0-1.111-0.616-3.227-1.844
	c-0.071-0.052-0.106-0.113-0.106-0.185c0-0.433,0.443-1.631,1.325-3.588c-0.311-0.434-0.571-0.887-0.779-1.35
	c-2.585-0.261-3.874-0.53-3.874-0.807v-3.644c0-0.275,1.289-0.545,3.874-0.805c0.224-0.505,0.483-0.953,0.779-1.352
	c-0.888-1.962-1.325-3.154-1.325-3.588c0-0.07,0.035-0.132,0.106-0.184c0.071-0.035,0.372-0.209,0.912-0.52
	c0.536-0.311,1.05-0.606,1.534-0.881c0.484-0.276,0.744-0.413,0.78-0.419c0.138,0,0.54,0.403,1.197,1.208
	c0.657,0.806,1.111,1.392,1.351,1.758c0.348-0.035,0.606-0.05,0.78-0.05s0.433,0.015,0.779,0.05
	c0.887-1.228,1.682-2.201,2.391-2.914l0.157-0.052c0.072,0,1.147,0.606,3.227,1.819c0.071,0.052,0.107,0.113,0.107,0.184
	c0,0.434-0.443,1.631-1.325,3.588c0.296,0.398,0.556,0.852,0.78,1.352C534.479,596.214,535.769,596.483,535.769,596.759
	L535.769,596.759z"/>
</svg>
