<?xml version="1.0" encoding="utf-8"?>
<!-- Generator: Adobe Illustrator 15.0.0, SVG Export Plug-In . SVG Version: 6.00 Build 0)  -->
<!DOCTYPE svg PUBLIC "-//W3C//DTD SVG 1.1//EN" "http://www.w3.org/Graphics/SVG/1.1/DTD/svg11.dtd">
<svg version="1.1" id="Layer_1" xmlns="http://www.w3.org/2000/svg" xmlns:xlink="http://www.w3.org/1999/xlink" x="0px" y="0px"
	 width="1024px" height="768px" viewBox="0 0 1024 768" enable-background="new 0 0 1024 768" xml:space="preserve">
<rect x="1" y="-1" fill="#0D2234" width="1023" height="769"/>
<g opacity="0.1">
	<rect x="-0.5" y="-1.5" fill="none" stroke="#FFFFFF" stroke-miterlimit="10" width="1023" height="769"/>
	<line fill="none" stroke="#FFFFFF" stroke-miterlimit="10" x1="4" y1="729.5" x2="1021" y2="729.5"/>
	<line fill="none" stroke="#FFFFFF" stroke-miterlimit="10" x1="4" y1="692.5" x2="1021" y2="692.5"/>
	<line fill="none" stroke="#FFFFFF" stroke-miterlimit="10" x1="4" y1="651.5" x2="1021" y2="651.5"/>
	<line fill="none" stroke="#FFFFFF" stroke-miterlimit="10" x1="4" y1="625.5" x2="1021" y2="625.5"/>
	<line fill="none" stroke="#FFFFFF" stroke-miterlimit="10" x1="4" y1="587.5" x2="1021" y2="587.5"/>
	<line fill="none" stroke="#FFFFFF" stroke-miterlimit="10" x1="4" y1="546.5" x2="1021" y2="546.5"/>
	<line fill="none" stroke="#FFFFFF" stroke-miterlimit="10" x1="4" y1="509.5" x2="1021" y2="509.5"/>
	<line fill="none" stroke="#FFFFFF" stroke-miterlimit="10" x1="4" y1="472.5" x2="1021" y2="472.5"/>
	<line fill="none" stroke="#FFFFFF" stroke-miterlimit="10" x1="4" y1="434.5" x2="1021" y2="434.5"/>
	<line fill="none" stroke="#FFFFFF" stroke-miterlimit="10" x1="4" y1="397.5" x2="1021" y2="397.5"/>
	<line fill="none" stroke="#FFFFFF" stroke-miterlimit="10" x1="4" y1="367.5" x2="1021" y2="367.5"/>
	<line fill="none" stroke="#FFFFFF" stroke-miterlimit="10" x1="4" y1="330.5" x2="1021" y2="330.5"/>
	<line fill="none" stroke="#FFFFFF" stroke-miterlimit="10" x1="4" y1="293.5" x2="1021" y2="293.5"/>
	<line fill="none" stroke="#FFFFFF" stroke-miterlimit="10" x1="4" y1="252.5" x2="1021" y2="252.5"/>
	<line fill="none" stroke="#FFFFFF" stroke-miterlimit="10" x1="4" y1="214.5" x2="1021" y2="214.5"/>
	<line fill="none" stroke="#FFFFFF" stroke-miterlimit="10" x1="4" y1="177.5" x2="1021" y2="177.5"/>
	<line fill="none" stroke="#FFFFFF" stroke-miterlimit="10" x1="4" y1="140.5" x2="1021" y2="140.5"/>
	<line fill="none" stroke="#FFFFFF" stroke-miterlimit="10" x1="4" y1="110.5" x2="1021" y2="110.5"/>
	<line fill="none" stroke="#FFFFFF" stroke-miterlimit="10" x1="4" y1="73.5" x2="1021" y2="73.5"/>
	<line fill="none" stroke="#FFFFFF" stroke-miterlimit="10" x1="4" y1="35.5" x2="1021" y2="35.5"/>
	<line fill="none" stroke="#FFFFFF" stroke-miterlimit="10" x1="977.5" y1="0" x2="977.5" y2="761"/>
	<line fill="none" stroke="#FFFFFF" stroke-miterlimit="10" x1="925.5" y1="0" x2="925.5" y2="761"/>
	<line fill="none" stroke="#FFFFFF" stroke-miterlimit="10" x1="877.5" y1="0" x2="877.5" y2="761"/>
	<line fill="none" stroke="#FFFFFF" stroke-miterlimit="10" x1="825.5" y1="0" x2="825.5" y2="761"/>
	<line fill="none" stroke="#FFFFFF" stroke-miterlimit="10" x1="780.5" y1="0" x2="780.5" y2="761"/>
	<line fill="none" stroke="#FFFFFF" stroke-miterlimit="10" x1="734.5" y1="0" x2="734.5" y2="761"/>
	<line fill="none" stroke="#FFFFFF" stroke-miterlimit="10" x1="682.5" y1="0" x2="682.5" y2="761"/>
	<line fill="none" stroke="#FFFFFF" stroke-miterlimit="10" x1="637.5" y1="0" x2="637.5" y2="761"/>
	<line fill="none" stroke="#FFFFFF" stroke-miterlimit="10" x1="585.5" y1="0" x2="585.5" y2="761"/>
	<line fill="none" stroke="#FFFFFF" stroke-miterlimit="10" x1="537.5" y1="0" x2="537.5" y2="761"/>
	<line fill="none" stroke="#FFFFFF" stroke-miterlimit="10" x1="491.5" y1="0" x2="491.5" y2="761"/>
	<line fill="none" stroke="#FFFFFF" stroke-miterlimit="10" x1="439.5" y1="0" x2="439.5" y2="761"/>
	<line fill="none" stroke="#FFFFFF" stroke-miterlimit="10" x1="394.5" y1="0" x2="394.5" y2="761"/>
	<line fill="none" stroke="#FFFFFF" stroke-miterlimit="10" x1="342.5" y1="0" x2="342.5" y2="761"/>
	<line fill="none" stroke="#FFFFFF" stroke-miterlimit="10" x1="294.5" y1="0" x2="294.5" y2="761"/>
	<line fill="none" stroke="#FFFFFF" stroke-miterlimit="10" x1="248.5" y1="0" x2="248.5" y2="761"/>
	<line fill="none" stroke="#FFFFFF" stroke-miterlimit="10" x1="197.5" y1="0" x2="197.5" y2="761"/>
	<line fill="none" stroke="#FFFFFF" stroke-miterlimit="10" x1="151.5" y1="0" x2="151.5" y2="761"/>
	<line fill="none" stroke="#FFFFFF" stroke-miterlimit="10" x1="99.5" y1="0" x2="99.5" y2="761"/>
	<line fill="none" stroke="#FFFFFF" stroke-miterlimit="10" x1="54.5" y1="0" x2="54.5" y2="761"/>
</g>
<text transform="matrix(1 0 0 1 54.0571 56.6694)" fill="#FFFFFF" font-family="'Montserrat-Bold'" font-size="25.1911">JAVASCRIPT MODULE 1:</text>
<text transform="matrix(1 0 0 1 54.1299 96.8472)" fill="#F7BE2C" font-family="'Roboto-Bold'" font-size="41.8301">Introduction to JavaScript</text>
<path fill="#F7BE2C" d="M552.78,432.492c10.662,17.408,24.536,30.207,49.068,30.207c20.61,0,33.776-10.303,33.776-24.535
	c0-17.057-13.527-23.096-36.213-33.021l-12.437-5.334c-35.892-15.292-59.737-34.451-59.737-74.947
	c0-37.307,28.422-65.706,72.847-65.706c31.623,0,54.359,11.007,70.745,39.827l-38.733,24.869
	c-8.53-15.29-17.729-21.315-32.012-21.315c-14.571,0-23.804,9.242-23.804,21.315c0,14.923,9.242,20.964,30.583,30.206l12.437,5.327
	c42.264,18.125,66.124,36.599,66.124,78.14c0,44.783-35.18,69.318-82.426,69.318c-46.194,0-76.039-22.014-90.641-50.867
	L552.78,432.492z M377.065,436.803c7.815,13.863,14.923,25.584,32.013,25.584c16.343,0,26.652-6.395,26.652-31.256V261.997h49.741
	v169.808c0,51.506-30.197,74.945-74.275,74.945c-39.826,0-62.889-20.607-74.62-45.434L377.065,436.803z"/>
</svg>
