<?xml version="1.0" encoding="utf-8"?>
<!-- Generator: Adobe Illustrator 15.0.0, SVG Export Plug-In . SVG Version: 6.00 Build 0)  -->
<!DOCTYPE svg PUBLIC "-//W3C//DTD SVG 1.1//EN" "http://www.w3.org/Graphics/SVG/1.1/DTD/svg11.dtd">
<svg version="1.1" id="Layer_1" xmlns="http://www.w3.org/2000/svg" xmlns:xlink="http://www.w3.org/1999/xlink" x="0px" y="0px"
	 width="1024px" height="768px" viewBox="0 0 1024 768" enable-background="new 0 0 1024 768" xml:space="preserve">
<rect x="1" y="-2" fill="#0D2234" width="1023" height="769"/>
<g opacity="0.1">
	<rect x="-0.5" y="-2.5" fill="none" stroke="#FFFFFF" stroke-miterlimit="10" width="1023" height="769"/>
	<line fill="none" stroke="#FFFFFF" stroke-miterlimit="10" x1="4" y1="728.5" x2="1021" y2="728.5"/>
	<line fill="none" stroke="#FFFFFF" stroke-miterlimit="10" x1="4" y1="691.5" x2="1021" y2="691.5"/>
	<line fill="none" stroke="#FFFFFF" stroke-miterlimit="10" x1="4" y1="650.5" x2="1021" y2="650.5"/>
	<line fill="none" stroke="#FFFFFF" stroke-miterlimit="10" x1="4" y1="624.5" x2="1021" y2="624.5"/>
	<line fill="none" stroke="#FFFFFF" stroke-miterlimit="10" x1="4" y1="586.5" x2="1021" y2="586.5"/>
	<line fill="none" stroke="#FFFFFF" stroke-miterlimit="10" x1="4" y1="545.5" x2="1021" y2="545.5"/>
	<line fill="none" stroke="#FFFFFF" stroke-miterlimit="10" x1="4" y1="508.5" x2="1021" y2="508.5"/>
	<line fill="none" stroke="#FFFFFF" stroke-miterlimit="10" x1="4" y1="471.5" x2="1021" y2="471.5"/>
	<line fill="none" stroke="#FFFFFF" stroke-miterlimit="10" x1="4" y1="433.5" x2="1021" y2="433.5"/>
	<line fill="none" stroke="#FFFFFF" stroke-miterlimit="10" x1="4" y1="396.5" x2="1021" y2="396.5"/>
	<line fill="none" stroke="#FFFFFF" stroke-miterlimit="10" x1="4" y1="366.5" x2="1021" y2="366.5"/>
	<line fill="none" stroke="#FFFFFF" stroke-miterlimit="10" x1="4" y1="329.5" x2="1021" y2="329.5"/>
	<line fill="none" stroke="#FFFFFF" stroke-miterlimit="10" x1="4" y1="292.5" x2="1021" y2="292.5"/>
	<line fill="none" stroke="#FFFFFF" stroke-miterlimit="10" x1="4" y1="251.5" x2="1021" y2="251.5"/>
	<line fill="none" stroke="#FFFFFF" stroke-miterlimit="10" x1="4" y1="213.5" x2="1021" y2="213.5"/>
	<line fill="none" stroke="#FFFFFF" stroke-miterlimit="10" x1="4" y1="176.5" x2="1021" y2="176.5"/>
	<line fill="none" stroke="#FFFFFF" stroke-miterlimit="10" x1="4" y1="139.5" x2="1021" y2="139.5"/>
	<line fill="none" stroke="#FFFFFF" stroke-miterlimit="10" x1="4" y1="109.5" x2="1021" y2="109.5"/>
	<line fill="none" stroke="#FFFFFF" stroke-miterlimit="10" x1="4" y1="72.5" x2="1021" y2="72.5"/>
	<line fill="none" stroke="#FFFFFF" stroke-miterlimit="10" x1="4" y1="34.5" x2="1021" y2="34.5"/>
	<line fill="none" stroke="#FFFFFF" stroke-miterlimit="10" x1="977.5" y1="-1" x2="977.5" y2="760"/>
	<line fill="none" stroke="#FFFFFF" stroke-miterlimit="10" x1="925.5" y1="-1" x2="925.5" y2="760"/>
	<line fill="none" stroke="#FFFFFF" stroke-miterlimit="10" x1="877.5" y1="-1" x2="877.5" y2="760"/>
	<line fill="none" stroke="#FFFFFF" stroke-miterlimit="10" x1="825.5" y1="-1" x2="825.5" y2="760"/>
	<line fill="none" stroke="#FFFFFF" stroke-miterlimit="10" x1="780.5" y1="-1" x2="780.5" y2="760"/>
	<line fill="none" stroke="#FFFFFF" stroke-miterlimit="10" x1="734.5" y1="-1" x2="734.5" y2="760"/>
	<line fill="none" stroke="#FFFFFF" stroke-miterlimit="10" x1="682.5" y1="-1" x2="682.5" y2="760"/>
	<line fill="none" stroke="#FFFFFF" stroke-miterlimit="10" x1="637.5" y1="-1" x2="637.5" y2="760"/>
	<line fill="none" stroke="#FFFFFF" stroke-miterlimit="10" x1="585.5" y1="-1" x2="585.5" y2="760"/>
	<line fill="none" stroke="#FFFFFF" stroke-miterlimit="10" x1="537.5" y1="-1" x2="537.5" y2="760"/>
	<line fill="none" stroke="#FFFFFF" stroke-miterlimit="10" x1="491.5" y1="-1" x2="491.5" y2="760"/>
	<line fill="none" stroke="#FFFFFF" stroke-miterlimit="10" x1="439.5" y1="-1" x2="439.5" y2="760"/>
	<line fill="none" stroke="#FFFFFF" stroke-miterlimit="10" x1="394.5" y1="-1" x2="394.5" y2="760"/>
	<line fill="none" stroke="#FFFFFF" stroke-miterlimit="10" x1="342.5" y1="-1" x2="342.5" y2="760"/>
	<line fill="none" stroke="#FFFFFF" stroke-miterlimit="10" x1="294.5" y1="-1" x2="294.5" y2="760"/>
	<line fill="none" stroke="#FFFFFF" stroke-miterlimit="10" x1="248.5" y1="-1" x2="248.5" y2="760"/>
	<line fill="none" stroke="#FFFFFF" stroke-miterlimit="10" x1="197.5" y1="-1" x2="197.5" y2="760"/>
	<line fill="none" stroke="#FFFFFF" stroke-miterlimit="10" x1="151.5" y1="-1" x2="151.5" y2="760"/>
	<line fill="none" stroke="#FFFFFF" stroke-miterlimit="10" x1="99.5" y1="-1" x2="99.5" y2="760"/>
	<line fill="none" stroke="#FFFFFF" stroke-miterlimit="10" x1="54.5" y1="-1" x2="54.5" y2="760"/>
</g>
<text transform="matrix(1 0 0 1 298.2983 98.0674)"><tspan x="0" y="0" fill="#FFFFFF" font-family="'Roboto-Regular'" font-size="41.9282">Comparison </tspan><tspan x="237.688" y="0" fill="#F7BE2C" font-family="'Roboto-Bold'" font-size="41.9282">Operators</tspan></text>
<rect x="248.5" y="139.5" fill="none" width="559.5" height="153"/>
<text transform="matrix(1 0 0 1 248.5 157.5)"><tspan x="0" y="0" fill="#FFFFFF" font-family="'Roboto-Bold'" font-size="24">==</tspan><tspan x="27.469" y="0" fill="#FFFFFF" font-family="'Roboto-Regular'" font-size="24" letter-spacing="2">	</tspan><tspan x="36" y="0" fill="#FFFFFF" font-family="'Roboto-Regular'" font-size="24" letter-spacing="30">	</tspan><tspan x="72" y="0" fill="#FFFFFF" font-family="'Roboto-Regular'" font-size="24">Checks whether two operands are equal</tspan><tspan x="0" y="30" fill="#FFFFFF" font-family="'Roboto-Bold'" font-size="24">!=</tspan><tspan x="20.262" y="30" fill="#FFFFFF" font-family="'Roboto-Regular'" font-size="24" letter-spacing="9">	</tspan><tspan x="36" y="30" fill="#FFFFFF" font-family="'Roboto-Regular'" font-size="24" letter-spacing="30">	</tspan><tspan x="72" y="30" fill="#FFFFFF" font-family="'Roboto-Regular'" font-size="24">Checks whether two operands are not equal</tspan><tspan x="0" y="90" fill="#FFFFFF" font-family="'Roboto-Regular'" font-size="24">(Both of these operators, automatically convert the </tspan><tspan x="0" y="120" fill="#FFFFFF" font-family="'Roboto-Regular'" font-size="24">two operands to the same data type)</tspan></text>
<rect x="136.5" y="479.5" fill="none" width="826" height="186.5"/>
<text transform="matrix(1 0 0 1 136.5 497.5)"><tspan x="0" y="0" fill="#FFFFFF" font-family="'Roboto-Regular'" font-size="24">===</tspan><tspan x="39.516" y="0" fill="#FFFFFF" font-family="'Roboto-Regular'" font-size="24" letter-spacing="26">	</tspan><tspan x="72" y="0" fill="#FFFFFF" font-family="'Roboto-Regular'" font-size="24">Checks whether two operands are equal and of the same type</tspan><tspan x="0" y="30" fill="#FFFFFF" font-family="'Roboto-Regular'" font-size="24">!==</tspan><tspan x="32.52" y="30" fill="#FFFFFF" font-family="'Roboto-Regular'" font-size="24" letter-spacing="-2">	</tspan><tspan x="36" y="30" fill="#FFFFFF" font-family="'Roboto-Regular'" font-size="24" letter-spacing="30">	</tspan><tspan x="72" y="30" fill="#FFFFFF" font-family="'Roboto-Regular'" font-size="24">Checks whether two operands are of the same type and not equal </tspan><tspan x="0" y="60" fill="#FFFFFF" font-family="'Roboto-Regular'" font-size="24" letter-spacing="30">		</tspan><tspan x="72" y="60" fill="#FFFFFF" font-family="'Roboto-Regular'" font-size="24">or they are not of the same type</tspan></text>
<text transform="matrix(1.0055 0 0 1 294.251 325.5)"><tspan x="0" y="0" fill="#F7BE2C" font-family="'Hack-Regular'" font-size="26.1119">4 </tspan><tspan x="31.441" y="0" fill="#CCCCCC" font-family="'Hack-Regular'" font-size="26.1119">== </tspan><tspan x="78.603" y="0" fill="#F7BE2C" font-family="'Hack-Regular'" font-size="26.1119">5</tspan><tspan x="94.324" y="0" fill="#CCCCCC" font-family="'Hack-Regular'" font-size="26.1119">;</tspan><tspan x="110.045" y="0" fill="#CCCCCC" font-family="'Hack-Regular'" font-size="26.1119" letter-spacing="-7.956">	</tspan><tspan x="117.504" y="0" fill="#CCCCCC" font-family="'Hack-Regular'" font-size="26.1119" letter-spacing="22.874">						</tspan><tspan x="352.512" y="0" fill="#CCCCCC" font-family="'Hack-Regular'" font-size="26.1119">false</tspan><tspan x="0" y="32.64" fill="#F7BE2C" font-family="'Hack-Regular'" font-size="26.1119">4 </tspan><tspan x="31.441" y="32.64" fill="#CCCCCC" font-family="'Hack-Regular'" font-size="26.1119">== </tspan><tspan x="78.603" y="32.64" fill="#F7BE2C" font-family="'Hack-Regular'" font-size="26.1119">4</tspan><tspan x="94.324" y="32.64" fill="#CCCCCC" font-family="'Hack-Regular'" font-size="26.1119">;</tspan><tspan x="110.045" y="32.64" fill="#CCCCCC" font-family="'Hack-Regular'" font-size="26.1119" letter-spacing="-7.956">	</tspan><tspan x="117.504" y="32.64" fill="#CCCCCC" font-family="'Hack-Regular'" font-size="26.1119" letter-spacing="22.874">						</tspan><tspan x="352.512" y="32.64" fill="#CCCCCC" font-family="'Hack-Regular'" font-size="26.1119">true</tspan><tspan x="0" y="65.28" fill="#F7BE2C" font-family="'Hack-Regular'" font-size="26.1119">4 </tspan><tspan x="31.441" y="65.28" fill="#CCCCCC" font-family="'Hack-Regular'" font-size="26.1119">== </tspan><tspan x="78.603" y="65.28" fill="#F7BE2C" font-family="'Hack-Regular'" font-size="26.1119">“4”</tspan><tspan x="125.765" y="65.28" fill="#CCCCCC" font-family="'Hack-Regular'" font-size="26.1119">;</tspan><tspan x="141.486" y="65.28" fill="#CCCCCC" font-family="'Hack-Regular'" font-size="26.1119">	</tspan><tspan x="156.672" y="65.28" fill="#CCCCCC" font-family="'Hack-Regular'" font-size="26.1119" letter-spacing="22.874">					</tspan><tspan x="352.512" y="65.28" fill="#CCCCCC" font-family="'Hack-Regular'" font-size="26.1119">true</tspan><tspan x="0" y="97.92" fill="#F7BE2C" font-family="'Hack-Regular'" font-size="26.1119">”text” </tspan><tspan x="110.045" y="97.92" fill="#CCCCCC" font-family="'Hack-Regular'" font-size="26.1119">== </tspan><tspan x="157.207" y="97.92" fill="#F7BE2C" font-family="'Hack-Regular'" font-size="26.1119">“text”</tspan><tspan x="251.531" y="97.92" fill="#CCCCCC" font-family="'Hack-Regular'" font-size="26.1119">;</tspan><tspan x="267.252" y="97.92" fill="#CCCCCC" font-family="'Hack-Regular'" font-size="26.1119" letter-spacing="-7.956">	</tspan><tspan x="274.175" y="97.92" fill="#CCCCCC" font-family="'Hack-Regular'" font-size="26.1119" letter-spacing="22.874">		</tspan><tspan x="352.511" y="97.92" fill="#CCCCCC" font-family="'Hack-Regular'" font-size="26.1119">true</tspan><tspan x="0" y="130.56" fill="#F7BE2C" font-family="'Hack-Regular'" font-size="26.1119">”text”</tspan><tspan x="94.324" y="130.56" fill="#CCCCCC" font-family="'Hack-Regular'" font-size="26.1119"> != </tspan><tspan x="157.207" y="130.56" fill="#F7BE2C" font-family="'Hack-Regular'" font-size="26.1119">“other”</tspan><tspan x="267.252" y="130.56" fill="#CCCCCC" font-family="'Hack-Regular'" font-size="26.1119">;</tspan><tspan x="282.972" y="130.56" fill="#CCCCCC" font-family="'Hack-Regular'" font-size="26.1119" letter-spacing="13.923">	</tspan><tspan x="313.342" y="130.56" fill="#CCCCCC" font-family="'Hack-Regular'" font-size="26.1119" letter-spacing="22.874">	</tspan><tspan x="352.511" y="130.56" fill="#CCCCCC" font-family="'Hack-Regular'" font-size="26.1119">true</tspan></text>
<text transform="matrix(1.0055 0 0 1 294.251 605.5)"><tspan x="0" y="0" fill="#F7BE2C" font-family="'Hack-Regular'" font-size="26.1119">4 </tspan><tspan x="31.441" y="0" fill="#CCCCCC" font-family="'Hack-Regular'" font-size="26.1119">=== </tspan><tspan x="94.324" y="0" fill="#F7BE2C" font-family="'Hack-Regular'" font-size="26.1119">4</tspan><tspan x="110.045" y="0" fill="#CCCCCC" font-family="'Hack-Regular'" font-size="26.1119">;</tspan><tspan x="125.765" y="0" fill="#CCCCCC" font-family="'Hack-Regular'" font-size="26.1119" letter-spacing="14.918">	</tspan><tspan x="156.672" y="0" fill="#CCCCCC" font-family="'Hack-Regular'" font-size="26.1119" letter-spacing="22.874">						</tspan><tspan x="391.679" y="0" fill="#CCCCCC" font-family="'Hack-Regular'" font-size="26.1119">true</tspan><tspan x="0" y="32.64" fill="#F7BE2C" font-family="'Hack-Regular'" font-size="26.1119">4 </tspan><tspan x="31.441" y="32.64" fill="#CCCCCC" font-family="'Hack-Regular'" font-size="26.1119">=== </tspan><tspan x="94.324" y="32.64" fill="#F7BE2C" font-family="'Hack-Regular'" font-size="26.1119">“4”</tspan><tspan x="141.486" y="32.64" fill="#CCCCCC" font-family="'Hack-Regular'" font-size="26.1119">;</tspan><tspan x="157.207" y="32.64" fill="#CCCCCC" font-family="'Hack-Regular'" font-size="26.1119" letter-spacing="22.874">	</tspan><tspan x="195.839" y="32.64" fill="#CCCCCC" font-family="'Hack-Regular'" font-size="26.1119" letter-spacing="22.874">					</tspan><tspan x="391.679" y="32.64" fill="#CCCCCC" font-family="'Hack-Regular'" font-size="26.1119">false</tspan><tspan x="0" y="65.28" fill="#F7BE2C" font-family="'Hack-Regular'" font-size="26.1119">365 </tspan><tspan x="62.883" y="65.28" fill="#CCCCCC" font-family="'Hack-Regular'" font-size="26.1119">!== </tspan><tspan x="125.765" y="65.28" fill="#F7BE2C" font-family="'Hack-Regular'" font-size="26.1119">“text”</tspan><tspan x="220.09" y="65.28" fill="#F7BE2C" font-family="'Hack-Regular'" font-size="26.1119">	</tspan><tspan x="235.008" y="65.28" fill="#F7BE2C" font-family="'Hack-Regular'" font-size="26.1119" letter-spacing="22.874">				</tspan><tspan x="391.679" y="65.28" fill="#CCCCCC" font-family="'Hack-Regular'" font-size="26.1119">true</tspan></text>
</svg>
